<?xml version="1.0" encoding="utf-8"?>
<!-- Generator: Adobe Illustrator 24.2.1, SVG Export Plug-In . SVG Version: 6.00 Build 0)  -->
<svg version="1.1" id="Layer_1" xmlns="http://www.w3.org/2000/svg" xmlns:xlink="http://www.w3.org/1999/xlink" x="0px" y="0px"
	 viewBox="0 0 512 512" style="enable-background:new 0 0 512 512;" xml:space="preserve">
<style type="text/css">
	.st0{fill:#5A5A5A;}
</style>
<g>
	<g>
		<path class="st0" d="M175.4,336.6c-5-5-13.1-5-18.1,0L25.6,468.3v-71.5c0-7.1-5.7-12.8-12.8-12.8S0,389.7,0,396.8v102.4
			c0,7.1,5.7,12.8,12.8,12.8h102.4c7.1,0,12.8-5.7,12.8-12.8c0-7.1-5.7-12.8-12.8-12.8H43.7l131.7-131.7
			C180.4,349.7,180.4,341.6,175.4,336.6z"/>
	</g>
</g>
<g>
	<g>
		<path class="st0" d="M499.2,0H396.8C389.7,0,384,5.7,384,12.8s5.7,12.8,12.8,12.8h71.5L336.6,157.3c-5,5-5,13.1,0,18.1
			c5,5,13.1,5,18.1,0L486.4,43.7v71.5c0,7.1,5.7,12.8,12.8,12.8c7.1,0,12.8-5.7,12.8-12.8V12.8C512,5.7,506.3,0,499.2,0z"/>
	</g>
</g>
</svg>
