<?xml version="1.0" encoding="UTF-8"?>
<svg width="2332px" height="2420px" viewBox="0 0 2332 2420" version="1.1" xmlns="http://www.w3.org/2000/svg" xmlns:xlink="http://www.w3.org/1999/xlink">
    <title>Group 65</title>
    <g id="Page-1" stroke="none" stroke-width="1" fill="none" fill-rule="evenodd" opacity="0.504720052">
        <g id="Moo-Card-Front" transform="translate(441.000000, 935.000000)" stroke="#8B8B8B" stroke-width="0.903">
            <g id="Business-Card-Template" transform="translate(725.500000, 275.000000) scale(1, -1) translate(-725.500000, -275.000000) translate(-440.000000, -934.000000)">
                <g id="Group-65" transform="translate(1165.500000, 1209.000000) rotate(-58.000000) translate(-1165.500000, -1209.000000) translate(235.000000, 417.000000)">
                    <path d="M0.306839629,332.600989 C0.306839629,332.600989 795.884285,1184.76248 1171.5093,841.270332 C1691.0698,366.154665 1860.30684,1583.60099 1860.30684,1583.60099" id="Stroke-1"></path>
                    <path d="M5.53329827,323.172208 C5.53329827,323.172208 793.425685,1152.23141 1158.02109,836.690251 C1665.27477,397.683076 1840.54131,1576.24004 1859.5333,1583.17221" id="Stroke-3"></path>
                    <path d="M14.0318291,311.448548 C14.0318291,311.448548 792.485666,1119.51689 1145.33045,831.037946 C1639.15635,427.295087 1820.10296,1569.56682 1858.03183,1583.44855" id="Stroke-5"></path>
                    <path d="M18.3043444,300.936679 C18.3043444,300.936679 788.928126,1086.87911 1130.8804,825.781775 C1612.29465,458.196943 1799.37327,1562.12364 1856.30434,1582.93668" id="Stroke-7"></path>
                    <path d="M25.3560444,287.411028 C25.3560444,287.411028 787.609701,1052.60965 1118.59198,818.330197 C1587.225,486.618291 1780.4386,1553.62717 1856.35604,1581.41103" id="Stroke-9"></path>
                    <path d="M30.158479,277.747206 C30.158479,277.747206 784.293767,1021.19803 1104.63967,813.922985 C1560.58513,518.910389 1760.19791,1547.03122 1855.15848,1581.74721" id="Stroke-11"></path>
                    <path d="M37.7400982,265.069603 C37.7400982,265.069603 783.122756,988.109381 1092.86564,807.322956 C1535.63893,548.893902 1741.77299,1539.36424 1855.7401,1581.0696" id="Stroke-13"></path>
                    <path d="M44.7315165,256.064846 C44.7315165,256.064846 780.253541,957.275792 1079.35419,803.162405 C1508.15881,582.216465 1720.90064,1532.4634 1853.73152,1581.06485" id="Stroke-15"></path>
                    <path d="M50.3819992,245.871105 C50.3819992,245.871105 776.876287,926.053999 1066.22164,798.22127 C1481.32792,614.829099 1701.47109,1525.34692 1853.382,1580.87111" id="Stroke-17"></path>
                    <path d="M56.6915463,233.488381 C56.6915463,233.488381 773.246217,894.337683 1053.17138,792.334961 C1453.73984,646.370484 1681.76906,1518.90894 1852.69155,1581.48838" id="Stroke-19"></path>
                    <path d="M64.2361337,223.681633 C64.2361337,223.681633 769.033571,862.418175 1039.71458,786.536743 C1424.32641,678.717141 1660.61646,1509.32837 1850.23613,1578.68163" id="Stroke-21"></path>
                    <path d="M73.3614541,214.631262 C73.3614541,214.631262 767.613961,833.217108 1030.57463,783.153635 C1399.36998,712.941988 1645.52057,1504.3147 1854.36145,1580.63126" id="Stroke-23"></path>
                    <path d="M77.6800261,203.036305 C77.6800261,203.036305 759.354198,801.276772 1015.0029,777.227664 C1366.28822,744.180666 1622.95268,1496.75178 1850.68003,1580.0363" id="Stroke-25"></path>
                    <path d="M82.9064847,192.607524 C82.9064847,192.607524 751.891941,770.032919 1001.39044,772.467183 C1334.49552,775.717199 1603.02998,1490.34951 1849.90648,1580.60752" id="Stroke-27"></path>
                    <path d="M88.5199357,183.284638 C88.5199357,183.284638 742.930222,738.297472 986.612398,767.977759 C1300.09375,806.157198 1580.92034,1483.18961 1846.51994,1580.28464" id="Stroke-29"></path>
                    <path d="M95.7606193,169.418051 C95.7606193,169.418051 736.255225,702.479516 974.999025,760.617661 C1268.89742,832.187517 1562.9918,1475.20086 1847.76062,1579.41805" id="Stroke-31"></path>
                    <path d="M103.281957,161.261342 C103.281957,161.261342 728.76475,669.509781 962.165333,757.292885 C1236.02875,860.293125 1542.83624,1469.21512 1846.28196,1580.26134" id="Stroke-33"></path>
                    <path d="M108.720649,147.841586 C108.720649,147.841586 720.803949,630.992828 948.731349,749.963683 C1203.65541,883.025343 1523.08303,1460.73254 1845.72065,1578.84159" id="Stroke-35"></path>
                    <path d="M115.053003,139.025813 C115.053003,139.025813 714.035597,595.229299 935.221133,746.399109 C1171.97241,908.206821 1502.59055,1455.01305 1844.053,1580.02581" id="Stroke-37"></path>
                    <path d="M121.021614,127.454105 C121.021614,127.454105 708.889008,555.954423 922.291252,740.076937 C1142.44303,930.021836 1483.33232,1446.54282 1844.02161,1578.4541" id="Stroke-39"></path>
                    <path d="M128.050065,116.578493 C128.050065,116.578493 706.140148,517.615969 910.398676,735.295963 C1115.23533,953.591862 1465.10547,1440.58286 1845.05006,1579.57849" id="Stroke-41"></path>
                    <path d="M134.08754,106.490648 C134.08754,106.490648 702.593892,479.559827 896.151992,730.458013 C1086.46778,977.151316 1443.55826,1433.59661 1842.08754,1579.49065" id="Stroke-43"></path>
                    <path d="M140.162046,96.5319474 C140.162046,96.5319474 701.031178,441.759747 883.287838,725.323821 C1060.32538,1000.76966 1424.3546,1425.84674 1842.16205,1578.53195" id="Stroke-45"></path>
                    <path d="M147.554682,84.1952798 C147.554682,84.1952798 700.79193,402.55354 870.863318,718.659542 C1035.06691,1023.86153 1404.95453,1417.51596 1841.55468,1577.19528" id="Stroke-47"></path>
                    <path d="M152.78114,73.7664988 C152.78114,73.7664988 699.456548,365.765795 857.122118,713.903414 C1009.12196,1049.53305 1384.86621,1411.08932 1840.78114,1577.7665" id="Stroke-49"></path>
                    <path d="M159.666664,62.1487341 C159.666664,62.1487341 699.036993,328.45912 843.793003,708.386016 C983.592067,1075.30385 1364.25563,1404.35602 1838.66666,1578.14873" id="Stroke-51"></path>
                    <path d="M165.74117,52.1900339 C165.74117,52.1900339 698.86262,292.742353 830.881468,703.24844 C958.879078,1101.25135 1344.99217,1396.62495 1838.74117,1577.19003" id="Stroke-53"></path>
                    <path d="M170.165637,42.2080837 C170.165637,42.2080837 696.401909,257.59149 815.519536,698.513238 C931.618916,1128.26669 1322.66285,1389.76073 1835.16564,1577.20808" id="Stroke-55"></path>
                    <path d="M179.420103,31.1206815 C179.420103,31.1206815 699.348791,221.927903 805.758905,693.529647 C910.10394,1155.98097 1306.5424,1383.54406 1838.4201,1578.12068" id="Stroke-57"></path>
                    <path d="M182.701643,21.3965785 C182.701643,21.3965785 695.302317,187.422816 788.89734,688.193718 C881.272467,1182.43493 1282.4188,1375.19571 1832.70164,1576.39658" id="Stroke-59"></path>
                    <path d="M191.131311,9.189056 C191.131311,9.189056 696.929898,150.919017 777.934998,681.23106 C858.411776,1208.08693 1264.79476,1366.1169 1834.13131,1574.18906" id="Stroke-61"></path>
                    <path d="M196.380576,0.327226068 C196.380576,0.327226068 695.274584,118.106992 763.787633,678.474465 C832.303467,1238.83916 1243.98537,1362.11343 1832.38058,1577.32723" id="Stroke-63"></path>
                </g>
            </g>
        </g>
    </g>
</svg>