<svg width="34" height="34" viewBox="0 0 34 34" fill="none" xmlns="http://www.w3.org/2000/svg">
<path d="M17 7.85718C15.8698 7.85718 14.765 8.19232 13.8253 8.82021C12.8856 9.4481 12.1532 10.3406 11.7207 11.3847C11.2882 12.4288 11.175 13.5778 11.3955 14.6863C11.616 15.7947 12.1602 16.8129 12.9594 17.6121C13.7585 18.4112 14.7767 18.9555 15.8852 19.1759C16.9937 19.3964 18.1426 19.2833 19.1868 18.8508C20.2309 18.4183 21.1234 17.6859 21.7512 16.7461C22.3791 15.8064 22.7143 14.7016 22.7143 13.5715C22.7143 12.0559 22.1122 10.6025 21.0406 9.53085C19.969 8.45922 18.5155 7.85718 17 7.85718ZM17 17C16.3219 17 15.659 16.799 15.0952 16.4222C14.5314 16.0455 14.0919 15.51 13.8324 14.8835C13.5729 14.257 13.505 13.5677 13.6373 12.9026C13.7696 12.2375 14.0961 11.6266 14.5756 11.1471C15.0551 10.6676 15.666 10.3411 16.3311 10.2088C16.9962 10.0765 17.6856 10.1444 18.3121 10.4039C18.9385 10.6634 19.474 11.1028 19.8507 11.6667C20.2275 12.2305 20.4286 12.8934 20.4286 13.5715C20.4277 14.4805 20.0661 15.352 19.4234 15.9948C18.7806 16.6376 17.909 16.9991 17 17Z" fill="black" stroke="black" stroke-width="0.4"/>
<path d="M17 1C13.8355 1 10.7421 1.93838 8.11088 3.69649C5.4797 5.45459 3.42894 7.95345 2.21793 10.8771C1.00693 13.8007 0.690079 17.0177 1.30744 20.1214C1.92481 23.2251 3.44866 26.0761 5.6863 28.3137C7.92394 30.5513 10.7749 32.0752 13.8786 32.6926C16.9823 33.3099 20.1993 32.9931 23.1229 31.7821C26.0466 30.5711 28.5454 28.5203 30.3035 25.8891C32.0616 23.2579 33 20.1645 33 17C32.9952 12.758 31.3079 8.69117 28.3084 5.69164C25.3088 2.6921 21.242 1.00484 17 1V1ZM10.1429 28.8594V27.2857C10.1438 26.3767 10.5053 25.5051 11.1481 24.8623C11.7909 24.2196 12.6624 23.858 13.5714 23.8571H20.4286C21.3376 23.858 22.2092 24.2196 22.8519 24.8623C23.4947 25.5051 23.8562 26.3767 23.8571 27.2857V28.8594C21.7762 30.0745 19.4097 30.7148 17 30.7148C14.5903 30.7148 12.2238 30.0745 10.1429 28.8594V28.8594ZM26.1337 27.2011C26.1109 25.7021 25.5002 24.272 24.433 23.219C23.3659 22.1659 21.9278 21.5742 20.4286 21.5714H13.5714C12.0722 21.5742 10.6341 22.1659 9.56696 23.219C8.49982 24.272 7.88907 25.7021 7.86629 27.2011C5.79379 25.3506 4.33227 22.9141 3.67525 20.2145C3.01822 17.5148 3.19669 14.6792 4.18702 12.0833C5.17735 9.48728 6.93283 7.25333 9.221 5.67722C11.5092 4.1011 14.2221 3.25717 17.0006 3.25717C19.779 3.25717 22.492 4.1011 24.7801 5.67722C27.0683 7.25333 28.8238 9.48728 29.8141 12.0833C30.8045 14.6792 30.9829 17.5148 30.3259 20.2145C29.6689 22.9141 28.2074 25.3506 26.1349 27.2011H26.1337Z" fill="black" stroke="black" stroke-width="0.4"/>
</svg>
