<svg width="36" height="32" viewBox="0 0 36 32" fill="none" xmlns="http://www.w3.org/2000/svg">
<path d="M30.8 8H5.2C3.43269 8 2 9.43269 2 11.2V27.2C2 28.9673 3.43269 30.4 5.2 30.4H30.8C32.5673 30.4 34 28.9673 34 27.2V11.2C34 9.43269 32.5673 8 30.8 8Z" stroke="black" stroke-width="3" stroke-linecap="round" stroke-linejoin="round"/>
<path d="M24.4 30.4001V4.8001C24.4 3.9514 24.0629 3.13747 23.4627 2.53736C22.8626 1.93724 22.0487 1.6001 21.2 1.6001H14.8C13.9513 1.6001 13.1374 1.93724 12.5373 2.53736C11.9371 3.13747 11.6 3.9514 11.6 4.8001V30.4001" stroke="black" stroke-width="3" stroke-linecap="round" stroke-linejoin="round"/>
</svg>
